<svg xmlns="http://www.w3.org/2000/svg" width="114.17" height="114.17" viewBox="3.375 3.375 114.17 114.17">
    <g data-name="CompositeLayer">
        <path
            d="M60.46 11.06c13.201 0 25.606 5.132 34.937 14.463 9.331 9.331 14.464 21.736 14.464 34.937 0 13.201-5.133 25.606-14.464 34.937-9.331 9.331-21.736 14.464-34.937 14.464-13.2 0-25.606-5.133-34.937-14.464C16.192 86.066 11.06 73.661 11.06 60.46c0-13.2 5.132-25.606 14.463-34.937C34.854 16.192 47.259 11.06 60.46 11.06m0-7.685c-31.534 0-57.085 25.551-57.085 57.085 0 31.534 25.551 57.085 57.085 57.085 31.534 0 57.085-25.55 57.085-57.085 0-31.534-25.55-57.085-57.085-57.085Z"
            fill="#C2C6CC" fill-rule="evenodd" data-name="Path 309" />
        <path
            d="M85.298 56.069H64.85V35.623a4.404 4.404 0 0 0-4.39-4.392 4.404 4.404 0 0 0-4.392 4.392v20.446H35.623c-2.416 0-4.392 1.647-4.392 4.391 0 2.745 2.059 4.391 4.392 4.391h20.446v20.447c0 2.607 1.921 4.39 4.391 4.39a4.369 4.369 0 0 0 4.391-4.39V64.85h20.447a4.404 4.404 0 0 0 4.39-4.39 4.404 4.404 0 0 0-4.39-4.392Z"
            fill="#C2C6CC" fill-rule="evenodd" data-name="Path 308" />
    </g>
</svg>