<svg xmlns="http://www.w3.org/2000/svg" width="32.381" height="22.667" viewBox="150.309 412.167 32.381 22.667">
    <path
        d="M155.166 421.88a3.241 3.241 0 0 0 3.238-3.237 3.241 3.241 0 0 0-3.238-3.238 3.241 3.241 0 0 0-3.238 3.238 3.241 3.241 0 0 0 3.238 3.238Zm22.667 0a3.241 3.241 0 0 0 3.238-3.237 3.241 3.241 0 0 0-3.238-3.238 3.241 3.241 0 0 0-3.238 3.238 3.241 3.241 0 0 0 3.238 3.238Zm1.619 1.62h-3.238c-.89 0-1.695.359-2.282.94a7.4 7.4 0 0 1 3.8 5.536h3.339c.896 0 1.619-.724 1.619-1.62v-1.618a3.241 3.241 0 0 0-3.238-3.238Zm-12.952 0a5.664 5.664 0 0 0 5.666-5.667 5.664 5.664 0 0 0-5.666-5.666 5.664 5.664 0 0 0-5.667 5.666 5.664 5.664 0 0 0 5.667 5.667Zm3.885 1.619h-.42a7.97 7.97 0 0 1-3.465.81 7.987 7.987 0 0 1-3.466-.81h-.42a5.83 5.83 0 0 0-5.829 5.828v1.458a2.43 2.43 0 0 0 2.429 2.428h14.571a2.43 2.43 0 0 0 2.429-2.428v-1.458a5.83 5.83 0 0 0-5.829-5.828Zm-11.318-.678a3.229 3.229 0 0 0-2.282-.941h-3.238a3.241 3.241 0 0 0-3.238 3.238v1.619c0 .895.724 1.619 1.62 1.619h3.333a7.42 7.42 0 0 1 3.805-5.535Z"
        fill="#00428e" fill-rule="evenodd" data-name="Icon awesome-users" />
</svg>