<svg xmlns="http://www.w3.org/2000/svg" width="29" height="29" viewBox="0 0 29 29">
  <g id="Group_521" data-name="Group 521" transform="translate(-2430.6 139.4)">
    <circle id="Ellipse_44" data-name="Ellipse 44" cx="14.5" cy="14.5" r="14.5" transform="translate(2430.6 -139.4)" fill="#fff"/>
    <g id="line_46_" transform="translate(2436.22 -135.085)" opacity="0.92">
      <path id="Path_240" data-name="Path 240" d="M23.275,14.435a1.68,1.68,0,0,0,2.677,1.359l5,3.017c-.005.053-.016.1-.016.158a1.687,1.687,0,0,0,3.373,0c0-.054-.011-.105-.016-.158l5-3.017a1.684,1.684,0,1,0,1.636-2.916V7.134a1.686,1.686,0,1,0-1.84-2.748L34.291,1.841a1.567,1.567,0,0,0,.016-.156,1.686,1.686,0,0,0-3.372,0c0,.054.011.1.016.156L26.156,4.388a1.686,1.686,0,1,0-1.84,2.748v5.742A1.684,1.684,0,0,0,23.275,14.435ZM39.424,7.023a1.605,1.605,0,0,0,.211.112v5.743a1.68,1.68,0,0,0-.425.265l-4.918-2.61a1.567,1.567,0,0,0,.016-.156,1.67,1.67,0,0,0-.025-.249Zm-6.157-3.78a1.663,1.663,0,0,0,.421-.261l4.908,2.6a1.66,1.66,0,0,0,.054.395L33.616,9.02a1.7,1.7,0,0,0-.35-.2Zm0,8.69a1.652,1.652,0,0,0,.421-.261l4.922,2.613c0,.05-.015.1-.015.15a1.665,1.665,0,0,0,.026.255L33.685,17.67a1.673,1.673,0,0,0-.418-.258V11.933Zm-1.291,5.478a1.673,1.673,0,0,0-.418.258L26.622,14.69a1.666,1.666,0,0,0,.026-.255c0-.052-.01-.1-.015-.15l4.922-2.613a1.663,1.663,0,0,0,.421.261v5.479h0ZM26.647,5.588l4.908-2.6a1.679,1.679,0,0,0,.421.26V8.818a1.668,1.668,0,0,0-.35.2L26.593,5.983A1.659,1.659,0,0,0,26.647,5.588Zm-1.04,1.546a1.685,1.685,0,0,0,.211-.112l5.142,3.1a1.671,1.671,0,0,0-.025.249c0,.054.011.1.016.156l-4.918,2.61a1.69,1.69,0,0,0-.425-.265V7.135Z" transform="translate(-23.275)" fill="#a182d6"/>
    </g>
  </g>
</svg>
