<svg xmlns="http://www.w3.org/2000/svg" width="33" height="33" viewBox="0 0 33 33">
  <g id="Group_640" data-name="Group 640" transform="translate(-4994 1085)">
    <circle id="Ellipse_46" data-name="Ellipse 46" cx="16.5" cy="16.5" r="16.5" transform="translate(4994 -1085)" fill="#e8e8e8" opacity="0.8"/>
    <path id="Icon_ionic-md-notifications" data-name="Icon ionic-md-notifications" d="M12.885,20.536a1.717,1.717,0,0,0,1.708-1.716H11.177A1.717,1.717,0,0,0,12.885,20.536Zm5.552-5.148V10.668a5.561,5.561,0,0,0-4.271-5.406v-.6a1.281,1.281,0,1,0-2.562,0v.6a5.561,5.561,0,0,0-4.271,5.406v4.719L5.625,17.1v.858H20.146V17.1Z" transform="translate(4997.614 -1080.455)" opacity="0.29"/>
  </g>
</svg>
