<svg xmlns="http://www.w3.org/2000/svg" width="40" height="40" viewBox="0 0 40 40">
  <g id="Group_369" data-name="Group 369" transform="translate(0 -0.309)">
    <circle id="Ellipse_1" data-name="Ellipse 1" cx="20" cy="20" r="20" transform="translate(0 0.309)" fill="#fff" opacity="0.2"/>
    <path id="Icon_material-event-available" data-name="Icon material-event-available" d="M18.523,12.43l-1.1-1.152-5.058,5.3-2.2-2.3-1.1,1.152,3.3,3.455Zm2.56-8.757H20.047V1.5H17.974V3.673H9.682V1.5H7.609V3.673H6.573A2.116,2.116,0,0,0,4.51,5.846L4.5,21.056a2.124,2.124,0,0,0,2.073,2.173h14.51a2.131,2.131,0,0,0,2.073-2.173V5.846A2.131,2.131,0,0,0,21.083,3.673Zm0,17.383H6.573V9.105h14.51Z" transform="translate(5.896 8.013)" fill="#fff" opacity="0.8"/>
  </g>
</svg>
