<svg xmlns="http://www.w3.org/2000/svg" width="18.323" height="20.94" viewBox="0 0 18.323 20.94">
  <path id="Icon_awesome-calendar-alt" data-name="Icon awesome-calendar-alt"
    d="M0,18.977A1.964,1.964,0,0,0,1.963,20.94h14.4a1.964,1.964,0,0,0,1.963-1.963V7.853H0Zm13.088-8.016a.492.492,0,0,1,.491-.491h1.636a.492.492,0,0,1,.491.491V12.6a.492.492,0,0,1-.491.491H13.578a.492.492,0,0,1-.491-.491Zm0,5.235a.492.492,0,0,1,.491-.491h1.636a.492.492,0,0,1,.491.491v1.636a.492.492,0,0,1-.491.491H13.578a.492.492,0,0,1-.491-.491ZM7.853,10.961a.492.492,0,0,1,.491-.491H9.979a.492.492,0,0,1,.491.491V12.6a.492.492,0,0,1-.491.491H8.343a.492.492,0,0,1-.491-.491Zm0,5.235a.492.492,0,0,1,.491-.491H9.979a.492.492,0,0,1,.491.491v1.636a.492.492,0,0,1-.491.491H8.343a.492.492,0,0,1-.491-.491ZM2.618,10.961a.492.492,0,0,1,.491-.491H4.744a.492.492,0,0,1,.491.491V12.6a.492.492,0,0,1-.491.491H3.108a.492.492,0,0,1-.491-.491Zm0,5.235a.492.492,0,0,1,.491-.491H4.744a.492.492,0,0,1,.491.491v1.636a.492.492,0,0,1-.491.491H3.108a.492.492,0,0,1-.491-.491ZM16.36,2.618H14.4V.654A.656.656,0,0,0,13.742,0H12.433a.656.656,0,0,0-.654.654V2.618H6.544V.654A.656.656,0,0,0,5.889,0H4.581a.656.656,0,0,0-.654.654V2.618H1.963A1.964,1.964,0,0,0,0,4.581V6.544H18.323V4.581A1.964,1.964,0,0,0,16.36,2.618Z"
    fill="currentColor" opacity="0.9" />
</svg>