<svg xmlns="http://www.w3.org/2000/svg" width="40" height="40" viewBox="0 0 40 40">
  <g id="Group_497" data-name="Group 497" transform="translate(-1856 -533)">
    <circle id="Ellipse_1" data-name="Ellipse 1" cx="20" cy="20" r="20" transform="translate(1856 533)" fill="#fff" opacity="0.2"/>
    <g id="credit-cards-svgrepo-com" transform="translate(1864.057 542.897)" opacity="0.8">
      <g id="Group_441" data-name="Group 441">
        <path id="Path_229" data-name="Path 229" d="M2.694,81.917A1.768,1.768,0,0,1,4.46,80.152h17.1l-2.023-6.405a1.137,1.137,0,0,0-1.425-.739L.792,78.482a1.135,1.135,0,0,0-.739,1.425L2.7,88.267v-6.35Z" transform="translate(0.001 -72.954)" fill="#fff"/>
        <path id="Path_230" data-name="Path 230" d="M136.812,781.22a1.009,1.009,0,0,0,1.009,1.009h18.416a1.009,1.009,0,0,0,1.009-1.009v-1.362H136.812v1.362Z" transform="translate(-133.361 -762.025)" fill="#fff"/>
        <path id="Path_231" data-name="Path 231" d="M157.246,389.267a1.009,1.009,0,0,0-1.009-1.009H137.821a1.009,1.009,0,0,0-1.009,1.009v6.975h20.434v-6.975Z" transform="translate(-133.361 -380.304)" fill="#fff"/>
      </g>
    </g>
  </g>
</svg>
