<svg xmlns="http://www.w3.org/2000/svg" width="18.323" height="13.727" viewBox="0 0 18.323 13.727">
  <g id="users-svgrepo-com" transform="translate(-0.001 -4.477)" opacity="0.9">
    <path id="Path_174" data-name="Path 174" d="M5.934,7.706a3.228,3.228,0,1,1,3.228,3.229A3.229,3.229,0,0,1,5.934,7.706Zm12.376,6.078-.451-2.705a1.316,1.316,0,0,0-.973-1.018,2.424,2.424,0,0,1-3.219,0,1.313,1.313,0,0,0-.974,1.018l-.011.064a2.13,2.13,0,0,0-.959-.54,3.853,3.853,0,0,1-5.12,0,2.13,2.13,0,0,0-.959.54l-.011-.064a1.316,1.316,0,0,0-.974-1.018,2.424,2.424,0,0,1-3.219,0,1.314,1.314,0,0,0-.973,1.018L.015,13.784A.879.879,0,0,0,.909,14.84H4.616l-.281,1.685A1.4,1.4,0,0,0,5.757,18.2h6.809a1.4,1.4,0,0,0,1.422-1.679l-.281-1.685h3.707A.88.88,0,0,0,18.309,13.784ZM15.275,10.27a2.03,2.03,0,1,0-2.029-2.03A2.03,2.03,0,0,0,15.275,10.27Zm-12.226,0a2.03,2.03,0,1,0-2.03-2.03A2.029,2.029,0,0,0,3.049,10.27Z" transform="translate(0 0)" fill="#fff"/>
  </g>
</svg>
