<svg xmlns="http://www.w3.org/2000/svg" width="28.246" height="23.688" viewBox="5 -3 18.21 32.38">
    <g data-name="CompositeLayer">
        <path
            d="M28.246 15.917a5.093 5.093 0 0 0-5.084-5.084 3.073 3.073 0 0 1-3.067-3.067A3.073 3.073 0 0 1 23.162 4.7c.853 0 1.648.34 2.23.963a1.01 1.01 0 0 0 1.424.046 1.01 1.01 0 0 0 .047-1.424 5.13 5.13 0 0 0-2.692-1.498V1.172c0-.56-.45-1.01-1.01-1.01-.558 0-1.008.45-1.008 1.01v1.614a5.088 5.088 0 0 0-4.076 4.98 5.093 5.093 0 0 0 5.085 5.084 3.073 3.073 0 0 1 3.067 3.067 3.073 3.073 0 0 1-3.067 3.067c-.853 0-1.649-.34-2.231-.963a1.01 1.01 0 0 0-1.424-.046 1.01 1.01 0 0 0-.046 1.424 5.13 5.13 0 0 0 2.692 1.499v1.62c0 .559.45 1.008 1.009 1.008.559 0 1.009-.45 1.009-1.009v-1.614a5.095 5.095 0 0 0 4.075-4.986Z"
            fill="#98bc4f" fill-rule="evenodd" data-name="Path 377" />
        <path
            d="M13.645 3.374 8.474.186c-.6-.363-1.32-.179-1.683.42-.364.6-.18 1.32.42 1.684l2.053 1.222C4.012 4.325 0 8.515 0 13.53c0 5.591 4.986 10.157 11.12 10.157.663 0 1.205-.6 1.205-1.263 0-.663-.542-1.205-1.205-1.205-4.75 0-8.653-3.545-8.653-7.753 0-3.995 3.522-7.338 7.944-7.667L8.53 8.302c-.42.542-.3 1.32.243 1.741.357.357 1.268.398 1.74-.242l3.425-4.629c.432-.594.328-1.476-.294-1.798Z"
            fill="#98bc4f" fill-rule="evenodd" data-name="Path 376" />
    </g>
</svg>