<svg xmlns="http://www.w3.org/2000/svg" width="19.5" height="21.949" viewBox="0 0 19.5 21.949">
  <g id="Creditor" opacity="0.85">
    <g id="Group_806" data-name="Group 806" transform="translate(0 0)">
      <g id="Group_805" data-name="Group 805" transform="translate(0 0)">
        <path id="Path_352" data-name="Path 352" d="M290.132,54.91a9.74,9.74,0,0,0-7.32-9.441.77.77,0,1,0-.381,1.493,8.208,8.208,0,0,1,1.246,15.465l.713-1.659a.771.771,0,0,0-1.417-.61l-1.39,3.236a.775.775,0,0,0,.4,1.013l3.236,1.39a.8.8,0,0,0,1.013-.4.775.775,0,0,0-.4-1.013l-1.408-.605A9.727,9.727,0,0,0,290.132,54.91Z" transform="translate(-270.632 -43.901)" fill="#fff"/>
        <path id="Path_353" data-name="Path 353" d="M46.3,29.978a8.208,8.208,0,0,1-1.367-15.412l-.668,1.551a.762.762,0,0,0,.4,1.013.754.754,0,0,0,1.013-.4l1.39-3.241a.725.725,0,0,0-.4-1.013l-3.237-1.39a.771.771,0,0,0-.61,1.417l1.506.646A9.75,9.75,0,0,0,45.92,31.471a.738.738,0,0,0,.937-.556A.773.773,0,0,0,46.3,29.978Z" transform="translate(-38.6 -11.022)" fill="#fff"/>
        <path id="Path_354" data-name="Path 354" d="M206.527,163.128a2.292,2.292,0,0,0,.448-2.335,1.841,1.841,0,0,0-.4-.628,2.278,2.278,0,0,0-.681-.448,7.038,7.038,0,0,0-.9-.264v-2.573a1.223,1.223,0,0,1,.69.372,1.556,1.556,0,0,1,.332.807l.923-.139a2.037,2.037,0,0,0-.7-1.336,2.2,2.2,0,0,0-1.237-.457V155.7h-.529v.426a2.341,2.341,0,0,0-1.34.489,2.1,2.1,0,0,0-.444,2.506,1.609,1.609,0,0,0,.659.659,3.7,3.7,0,0,0,1.13.426v2.847a1.308,1.308,0,0,1-.906-.533,2.247,2.247,0,0,1-.368-1.058l-.9.17a2.518,2.518,0,0,0,.354,1.179,1.861,1.861,0,0,0,.726.7,3.369,3.369,0,0,0,1.089.3v.892H205V163.8A2.169,2.169,0,0,0,206.527,163.128Zm-2.053-3.788a1.736,1.736,0,0,1-.865-.493,1.164,1.164,0,0,1-.256-.767,1.148,1.148,0,0,1,.3-.8,1.34,1.34,0,0,1,.82-.417Zm1.385,3.254a1.334,1.334,0,0,1-.861.453v-2.721a2.108,2.108,0,0,1,.964.529,1.2,1.2,0,0,1,.242.784A1.41,1.41,0,0,1,205.859,162.594Z" transform="translate(-194.962 -149.214)" fill="#fff"/>
      </g>
    </g>
  </g>
</svg>
