<svg xmlns="http://www.w3.org/2000/svg" width="53.849" height="73.762"><g data-name="CompositeLayer"><path d="M36.404 19.243h12.854c1.596 0 2.402-1.924 1.282-3.06A1454.02 1454.02 0 0 0 37.666 3.308c-1.137-1.12-3.06-.314-3.06 1.283v12.852a1.8 1.8 0 0 0 1.798 1.799Z" fill="#c6c5ca" fill-rule="evenodd" data-name="Path 296"/><path d="M52.05 21.941H33.256a1.35 1.35 0 0 1-1.35-1.349V1.8A1.8 1.8 0 0 0 30.108 0H2.7A2.699 2.699 0 0 0 0 2.699v68.365a2.699 2.699 0 0 0 2.699 2.698H51.15a2.699 2.699 0 0 0 2.699-2.698V23.74a1.8 1.8 0 0 0-1.8-1.8Zm-37.966-2.698h8.725a1.35 1.35 0 0 1 0 2.699h-8.725a1.35 1.35 0 0 1 0-2.699Zm25.681 41.363H14.084a1.35 1.35 0 0 1 0-2.698h25.681a1.35 1.35 0 0 1 0 2.698Zm0-9.666H14.084a1.35 1.35 0 0 1 0-2.698h25.681a1.35 1.35 0 0 1 0 2.698Zm0-9.666H14.084a1.35 1.35 0 0 1 0-2.698h25.681a1.35 1.35 0 0 1 0 2.698Zm0-9.666H14.084a1.35 1.35 0 0 1 0-2.699h25.681a1.35 1.35 0 0 1 0 2.699Z" fill="#e0e0e2" fill-rule="evenodd" data-name="Path 295"/></g></svg>