<svg xmlns="http://www.w3.org/2000/svg" width="21" height="21" viewBox="0 0 21 21">
  <g id="Group_643" data-name="Group 643" transform="translate(-3815 1583)">
    <circle id="Ellipse_10" data-name="Ellipse 10" cx="10.5" cy="10.5" r="10.5" transform="translate(3815 -1583)" fill="#2f2467" opacity="0.64"/>
    <g id="help-svgrepo-com" transform="translate(3820.615 -1577.363)">
      <g id="Group_420" data-name="Group 420" transform="translate(0 0)">
        <path id="Path_216" data-name="Path 216" d="M9.8,4.9A4.9,4.9,0,0,0,0,4.9H0a4.9,4.9,0,0,0,9.8,0h0ZM5.217.653a4.241,4.241,0,0,1,2.456,1.02L6.312,3.034a2.331,2.331,0,0,0-1.095-.455Zm-.639,0V2.579h0a2.331,2.331,0,0,0-1.095.455L2.122,1.672A4.241,4.241,0,0,1,4.579.653ZM1.67,2.124,3.032,3.486a2.331,2.331,0,0,0-.455,1.095H.651A4.241,4.241,0,0,1,1.67,2.124Zm-1.02,3.1H2.577a2.331,2.331,0,0,0,.455,1.095L1.67,7.676A4.241,4.241,0,0,1,.651,5.219ZM4.579,9.147a4.241,4.241,0,0,1-2.456-1.02L3.484,6.766a2.331,2.331,0,0,0,1.095.455ZM4.9,6.6h0A1.7,1.7,0,1,1,6.6,4.9h0A1.706,1.706,0,0,1,4.9,6.6Zm.319,2.544V7.221a2.331,2.331,0,0,0,1.095-.455L7.674,8.128A4.241,4.241,0,0,1,5.217,9.147ZM8.126,7.676,6.764,6.314a2.339,2.339,0,0,0,.455-1.1H9.145A4.247,4.247,0,0,1,8.126,7.676Zm-.907-3.1a2.331,2.331,0,0,0-.455-1.095L8.126,2.124a4.241,4.241,0,0,1,1.02,2.456Z" transform="translate(0 -0.002)" fill="#fdfdfd"/>
      </g>
    </g>
  </g>
</svg>
