<svg xmlns="http://www.w3.org/2000/svg" width="17.98" height="17.985" viewBox="0 0 17.98 17.985">
  <path id="Icon_ionic-ios-settings" data-name="Icon ionic-ios-settings"
    d="M21,13.49a2.314,2.314,0,0,1,1.484-2.159,9.171,9.171,0,0,0-1.11-2.674,2.345,2.345,0,0,1-.941.2,2.309,2.309,0,0,1-2.112-3.25A9.143,9.143,0,0,0,15.649,4.5a2.312,2.312,0,0,1-4.317,0A9.171,9.171,0,0,0,8.658,5.61a2.309,2.309,0,0,1-2.112,3.25,2.268,2.268,0,0,1-.941-.2A9.374,9.374,0,0,0,4.5,11.336a2.313,2.313,0,0,1,0,4.317,9.171,9.171,0,0,0,1.11,2.674,2.31,2.31,0,0,1,3.048,3.048,9.225,9.225,0,0,0,2.674,1.11,2.307,2.307,0,0,1,4.308,0,9.171,9.171,0,0,0,2.674-1.11,2.312,2.312,0,0,1,3.048-3.048,9.225,9.225,0,0,0,1.11-2.674A2.325,2.325,0,0,1,21,13.49Zm-7.464,3.741a3.746,3.746,0,1,1,3.746-3.746A3.745,3.745,0,0,1,13.532,17.231Z"
    transform="translate(-4.5 -4.5)" fill="currentColor" opacity="0.85" />
</svg>