<svg xmlns="http://www.w3.org/2000/svg" width="40" height="40" viewBox="0 0 40 40">
  <g id="Group_440" data-name="Group 440" transform="translate(0 -0.076)">
    <circle id="Ellipse_1" data-name="Ellipse 1" cx="20" cy="20" r="20" transform="translate(0 0.076)" fill="#fff" opacity="0.2"/>
    <g id="chart-svgrepo-com" transform="translate(11.346 12.169)" opacity="0.8">
      <path id="Path_228" data-name="Path 228" d="M17.131,28.185v.934H0V13.079H.934V28.186h16.2ZM2.945,20.393a1.083,1.083,0,0,0,.374-.07l1.731,2.71a1.248,1.248,0,1,0,1.977.372L9.3,21.744a1,1,0,0,0,1.364-.047l2.324,1.454a1.42,1.42,0,1,0,.3-.364L10.909,21.3a1.01,1.01,0,1,0-1.888.071L6.752,23.027a1.228,1.228,0,0,0-1.308-.247L3.716,20.075a1.09,1.09,0,1,0-.77.318Z" transform="translate(0 -13.079)" fill="#fff"/>
    </g>
  </g>
</svg>
