<svg xmlns="http://www.w3.org/2000/svg" width="40" height="40" viewBox="0 0 40 40">
  <g id="Group_513" data-name="Group 513" transform="translate(-1855 -1151)">
    <circle id="Ellipse_1" data-name="Ellipse 1" cx="20" cy="20" r="20" transform="translate(1855 1151)" fill="#fff" opacity="0.69"/>
    <g id="support-svgrepo-com_1_" data-name="support-svgrepo-com (1)" transform="translate(1867.173 1161.301)">
      <g id="Group_427" data-name="Group 427" transform="translate(0 12.373)">
        <g id="Group_426" data-name="Group 426" transform="translate(0)">
          <path id="Path_222" data-name="Path 222" d="M60.641,326.433l-3.41-.62a.436.436,0,0,0-.362.1l-1.8,1.5a.886.886,0,0,1-1.132,0l-.036-.027-.919-.618a.442.442,0,1,0-.494.733l.9.607a1.757,1.757,0,0,0,.671.332v2.23a.442.442,0,0,0,.884,0v-2.23a1.757,1.757,0,0,0,.69-.347l1.644-1.37,3.206.582a1.327,1.327,0,0,1,1.088,1.3v2.944a.442.442,0,0,1-.442.442H47.872a.442.442,0,0,1-.442-.442v-2.944a1.326,1.326,0,0,1,1.088-1.3l3.41-.62a.442.442,0,1,0-.158-.869l-3.41.62a2.209,2.209,0,0,0-1.814,2.174v2.944a1.327,1.327,0,0,0,1.326,1.326H61.129a1.327,1.327,0,0,0,1.326-1.326v-2.944A2.209,2.209,0,0,0,60.641,326.433Z" transform="translate(-46.546 -325.805)" fill="#8a8a8a"/>
        </g>
      </g>
      <g id="Group_429" data-name="Group 429" transform="translate(6.187 5.303)">
        <g id="Group_428" data-name="Group 428" transform="translate(0)">
          <circle id="Ellipse_39" data-name="Ellipse 39" cx="0.442" cy="0.442" r="0.442" fill="#8a8a8a"/>
        </g>
      </g>
      <g id="Group_431" data-name="Group 431" transform="translate(8.838 5.303)">
        <g id="Group_430" data-name="Group 430">
          <circle id="Ellipse_40" data-name="Ellipse 40" cx="0.442" cy="0.442" r="0.442" fill="#8a8a8a"/>
        </g>
      </g>
      <g id="Group_433" data-name="Group 433" transform="translate(2.21)">
        <g id="Group_432" data-name="Group 432">
          <path id="Path_223" data-name="Path 223" d="M114.892,3.977V3.535A3.539,3.539,0,0,0,111.357,0h-1.768a3.539,3.539,0,0,0-3.535,3.535v.442A1.327,1.327,0,0,0,104.728,5.3v.884a1.327,1.327,0,0,0,1.326,1.326h.284c.032.215.055.356.057.373a3.865,3.865,0,0,0,.857,2.021l.095.115a4.023,4.023,0,0,0,3.126,1.468,4.082,4.082,0,0,0,1.95-.5.442.442,0,0,0-.424-.776,3.2,3.2,0,0,1-1.526.388,3.14,3.14,0,0,1-2.442-1.145l-.095-.115a3.008,3.008,0,0,1-.665-1.58,29.221,29.221,0,0,1-.333-2.9V3.535A2.654,2.654,0,0,1,109.589.884h1.768a2.655,2.655,0,0,1,2.651,2.629,3.685,3.685,0,0,1-1.932-.764l0,.01a.437.437,0,0,0-.509-.044,9.132,9.132,0,0,1-3.371,1.14.442.442,0,0,0,.063.879.4.4,0,0,0,.065,0,10.179,10.179,0,0,0,3.433-1.117,4.648,4.648,0,0,0,2.248.787v.462a29.425,29.425,0,0,1-.336,2.925,2.935,2.935,0,0,1-.144.61h-1.77a.662.662,0,0,0-.622-.442H109.81a.663.663,0,0,0,0,1.326h4.64a1.327,1.327,0,0,0,1.326-1.326V7.168a1.318,1.318,0,0,0,.442-.981V5.3A1.327,1.327,0,0,0,114.892,3.977Zm-8.838,2.651a.442.442,0,0,1-.442-.442V5.3a.442.442,0,0,1,.442-.442Zm8.838,1.326a.442.442,0,0,1-.439.441,3.669,3.669,0,0,0,.1-.49c0-.022.027-.17.061-.393h.284Zm.442-1.768a.442.442,0,0,1-.442.442V4.861a.442.442,0,0,1,.442.442Z" transform="translate(-104.728)" fill="#8a8a8a"/>
        </g>
      </g>
    </g>
  </g>
</svg>
