<svg xmlns="http://www.w3.org/2000/svg" width="24.791" height="33.804" viewBox="20553.139 2279.248 24.791 33.804"><g data-name="Group 779"><g data-name="hand-wave-simple-svgrepo-com"><path d="M20561.16 2300.092c-1.779-1.57-4.237-3.7-7.324-6.454a1.369 1.369 0 0 1-.077-1.913 1.401 1.401 0 0 1 1.93-.143 307.262 307.262 0 0 1 6.697 4.654c.594.425.988.356 1.174.13.187-.225.105-.538-.4-1.158-1.41-1.743-3.34-4.053-5.715-6.983a1.341 1.341 0 0 1 .17-1.888 1.472 1.472 0 0 1 1.977.08c2.97 2.79 5.3 5 6.986 6.632.578.56.87.641 1.124.545.253-.097.408-.392.13-.89-.993-1.767-2.352-4.135-3.994-7.16-.446-.6-.34-1.445.24-1.916a1.435 1.435 0 0 1 1.95.14l7.567 10.007c.252.333.392.44.615.392.223-.049.244-.193.295-.594.165-1.305.498-4.225.498-4.225a1.534 1.534 0 0 1 1.588-1.243 1.412 1.412 0 0 1 1.339 1.406v12.205a7.923 7.923 0 0 1-4.212 6.642 7.756 7.756 0 0 1-8.278-.32l-11.717-7.135a1.401 1.401 0 0 1-.358-1.902 1.382 1.382 0 0 1 1.875-.425 747.714 747.714 0 0 1 5.814 2.707c.421.2.734.076.835-.164.1-.24-.1-.474-.728-1.027Z" fill="#ffa458" fill-rule="evenodd" data-name="Path"/></g><path d="M20569.151 2284.008a3.078 3.078 0 0 1 3.728 2.24.497.497 0 0 0 .965-.24 4.074 4.074 0 0 0-4.933-2.965.497.497 0 0 0 .24.965Z" fill="#ffa458" fill-rule="evenodd" data-name="Path 332"/><path d="M20560.75 2308.388a3.078 3.078 0 0 1-3.689-2.305.497.497 0 0 0-.969.224 4.074 4.074 0 0 0 4.881 3.05.497.497 0 0 0-.224-.97Z" fill="#ffa458" fill-rule="evenodd" data-name="Path 334"/><path d="M20575.13 2285.687a.497.497 0 0 0 .964-.24 6.395 6.395 0 0 0-7.743-4.653.497.497 0 0 0 .24.965 5.4 5.4 0 0 1 6.538 3.928Z" fill="#ffa458" fill-rule="evenodd" data-name="Path 333"/><path d="M20554.802 2306.605a.497.497 0 0 0-.97.224 6.395 6.395 0 0 0 7.662 4.787.497.497 0 0 0-.224-.97 5.4 5.4 0 0 1-6.468-4.041Z" fill="#ffa458" fill-rule="evenodd" data-name="Path 335"/></g></svg>