<svg xmlns="http://www.w3.org/2000/svg" width="13.843" height="12.778"><g data-name="CompositeLayer"><path d="M1.065 12.778h11.713c.589 0 1.065-.476 1.065-1.065V5.324H0v6.39c0 .588.476 1.064 1.065 1.064Z" stroke-linejoin="round" stroke-linecap="round" stroke-width=".5" stroke="#ff684d" fill="transparent" data-name="Path 356"/><path d="M12.778 2.13h-.266v-.267a.267.267 0 0 0-.266-.266H11.18a.267.267 0 0 0-.267.266v.267h-.931V1.065C9.983.479 9.503 0 8.918 0H4.925C4.339 0 3.86.48 3.86 1.065V2.13h-.932v-.267a.267.267 0 0 0-.266-.266H1.597a.267.267 0 0 0-.266.266v.267h-.266C.475 2.13 0 2.606 0 3.194v1.332h13.843V3.194c0-.588-.476-1.064-1.065-1.064Zm-3.727 0h-4.26v-.932c0-.146.12-.266.267-.266h3.727c.146 0 .266.12.266.266v.932Z" stroke-linejoin="round" stroke-linecap="round" stroke-width=".5" stroke="#ff684d" fill="transparent" data-name="Path 357"/></g></svg>