<svg xmlns="http://www.w3.org/2000/svg" width="67.502" height="39" viewBox="0 0 67.502 39">
  <g id="Logo_White_" data-name="Logo(White)" transform="translate(-186.747 -176.244)">
    <path id="Path_255" data-name="Path 255" d="M322.348,205.431a12.635,12.635,0,0,0-12.578-11.438,9.335,9.335,0,0,0-2.945.289,18.154,18.154,0,0,0-.776-2.748,16.669,16.669,0,0,0-2.089-3.935,16.313,16.313,0,0,1,7.979,1.065A16.583,16.583,0,0,1,322.348,205.431Z" transform="translate(-68.156 -4.063)" fill="#fbad41"/>
    <path id="Path_256" data-name="Path 256" d="M289.754,190.218q-.2.047-.4.1c-3.269.9-8.261,3.71-11.815,12.241A19.534,19.534,0,0,1,275,206.977l-.049.063a24.674,24.674,0,0,1-1.851-3.949,28.284,28.284,0,0,0-5.235-8.967,23.288,23.288,0,0,0-6.091-4.942,21.65,21.65,0,0,0-5.053-2.054,17.292,17.292,0,0,1,30.167-3.591h0A17.191,17.191,0,0,1,289.754,190.218Z" transform="translate(-51.084)" fill="#f58220"/>
    <path id="Path_257" data-name="Path 257" d="M287.872,220.671H241.777a14.635,14.635,0,1,1,0-29.27s13.7-.874,22.129,14.635a29.56,29.56,0,0,0,3.479,5.122c-6.15,8.008-16.119,9.325-20.484,9.5Z" transform="translate(-40.395 -5.474)" fill="#f58220"/>
    <g id="Group_563" data-name="Group 563" transform="translate(206.219 189.909)">
      <g id="Group_562" data-name="Group 562">
        <path id="Path_258" data-name="Path 258" d="M305.663,210.3a12.634,12.634,0,0,1-12.634,12.634l-35.4-.013c3.76-.149,12.331-1.28,17.648-8.143l.049-.063a19.565,19.565,0,0,0,2.539-4.414c3.554-8.53,8.545-11.338,11.815-12.241q.206-.058.4-.1a9.312,9.312,0,0,1,2.945-.289A12.635,12.635,0,0,1,305.607,209.1Q305.662,209.69,305.663,210.3Z" transform="translate(-257.633 -197.642)" fill="#f58220"/>
      </g>
    </g>
    <path id="XMLID_1940_" d="M299.44,201.814h-6.4l4.343-14.326-11.794,17.493h6.4l-4.343,14.326Z" transform="translate(-61.516 -4.063)" fill="#fff"/>
  </g>
</svg>
