<svg xmlns="http://www.w3.org/2000/svg" width="18.323" height="18.323" viewBox="0 0 18.323 18.323">
  <path id="Icon_material-library-books" data-name="Icon material-library-books" d="M4.832,6.665H3V19.491a1.838,1.838,0,0,0,1.832,1.832H17.658V19.491H4.832ZM19.49,3H8.5A1.838,1.838,0,0,0,6.665,4.832V15.826A1.838,1.838,0,0,0,8.5,17.658H19.49a1.838,1.838,0,0,0,1.832-1.832V4.832A1.838,1.838,0,0,0,19.49,3Zm-.916,8.245H9.413V9.413h9.161ZM14.91,14.91h-5.5V13.078h5.5Zm3.665-7.329H9.413V5.748h9.161Z" transform="translate(-3 -3)" fill="#fff" opacity="0.9"/>
</svg>
