<svg xmlns="http://www.w3.org/2000/svg" width="33" height="33" viewBox="0 0 33 33">
  <g id="Group_645" data-name="Group 645" transform="translate(-4994 1085)">
    <circle id="Ellipse_46" data-name="Ellipse 46" cx="16.5" cy="16.5" r="16.5" transform="translate(4994 -1085)" fill="#e8e8e8" opacity="0.8"/>
    <path id="Icon_awesome-newspaper" data-name="Icon awesome-newspaper" d="M14.4,4.5H2.3a.626.626,0,0,0-.626.626v.209H.626A.626.626,0,0,0,0,5.961v7.1a1.461,1.461,0,0,0,1.461,1.461H13.776a1.252,1.252,0,0,0,1.252-1.252V5.126A.626.626,0,0,0,14.4,4.5ZM1.461,13.267a.209.209,0,0,1-.209-.209V6.587H1.67v6.471A.209.209,0,0,1,1.461,13.267Zm6.157-.417H3.653a.313.313,0,0,1-.313-.313v-.209a.313.313,0,0,1,.313-.313H7.619a.313.313,0,0,1,.313.313v.209A.313.313,0,0,1,7.619,12.849Zm5.427,0H9.08a.313.313,0,0,1-.313-.313v-.209a.313.313,0,0,1,.313-.313h3.966a.313.313,0,0,1,.313.313v.209A.313.313,0,0,1,13.045,12.849Zm-5.427-2.5H3.653a.313.313,0,0,1-.313-.313V9.823a.313.313,0,0,1,.313-.313H7.619a.313.313,0,0,1,.313.313v.209A.313.313,0,0,1,7.619,10.344Zm5.427,0H9.08a.313.313,0,0,1-.313-.313V9.823a.313.313,0,0,1,.313-.313h3.966a.313.313,0,0,1,.313.313v.209A.313.313,0,0,1,13.045,10.344Zm0-2.5H3.653a.313.313,0,0,1-.313-.313V6.483a.313.313,0,0,1,.313-.313h9.393a.313.313,0,0,1,.313.313V7.527A.313.313,0,0,1,13.045,7.84Z" transform="translate(5002.986 -1078.01)" opacity="0.29"/>
  </g>
</svg>
