<svg xmlns="http://www.w3.org/2000/svg" width="33" height="33" viewBox="0 0 33 33">
  <g id="Group_647" data-name="Group 647" transform="translate(-4994 1085)">
    <circle id="Ellipse_46" data-name="Ellipse 46" cx="16.5" cy="16.5" r="16.5" transform="translate(4994 -1085)" fill="#e8e8e8" opacity="0.8"/>
    <path id="Icon_awesome-history" data-name="Icon awesome-history" d="M11.911,6.226a5.675,5.675,0,0,1-9.235,4.429.549.549,0,0,1-.042-.815l.258-.258a.55.55,0,0,1,.73-.045,4.21,4.21,0,1,0-.269-6.368L4.514,4.331a.366.366,0,0,1-.259.625H.929a.366.366,0,0,1-.366-.366V1.263A.366.366,0,0,1,1.187,1l1.13,1.13a5.674,5.674,0,0,1,9.594,4.092Zm-4.139,1.8L8,7.74a.549.549,0,0,0-.1-.771l-.931-.724V3.857a.549.549,0,0,0-.549-.549H6.054a.549.549,0,0,0-.549.549v3.1L7,8.125a.549.549,0,0,0,.771-.1Z" transform="translate(5004.263 -1074.737)" opacity="0.29"/>
  </g>
</svg>
