<svg xmlns="http://www.w3.org/2000/svg" xmlns:xlink="http://www.w3.org/1999/xlink" width="118" height="57.386"
    viewBox="120.5 20 118 57.386">
    <g data-name="Logo(White)" transform="translate(-31.749 -156.244)">
        <path
            d="M254.193 201.368c-.602-6.417-6.004-11.438-12.578-11.438 0 0-1.174-.136-2.945.288a17.215 17.215 0 0 0-2.865-6.682 16.313 16.313 0 0 1 7.98 1.064c6.955 2.77 10.99 9.683 10.408 16.768Z"
            fill="#fbad41" fill-rule="evenodd" data-name="Path 255" />
        <path
            d="M238.67 190.218c-.13.031-.264.066-.401.104-3.27.904-8.261 3.71-11.815 12.24a19.534 19.534 0 0 1-2.538 4.415l-.05.063a24.674 24.674 0 0 1-1.85-3.95c-1.283-3.465-3.043-6.482-5.235-8.966a23.288 23.288 0 0 0-6.091-4.943 21.65 21.65 0 0 0-5.054-2.054c2.544-6.377 8.777-10.883 16.062-10.883 5.823 0 10.974 2.879 14.106 7.292a17.191 17.191 0 0 1 2.866 6.682Z"
            fill="#f58220" fill-rule="evenodd" data-name="Path 256" />
        <path
            d="M247.476 215.197h-46.094c-8.083 0-14.635-6.552-14.635-14.635s6.552-14.635 14.635-14.635c0 0 13.699-.874 22.13 14.635 1.09 2.007 2.26 3.698 3.478 5.121-6.15 8.009-16.119 9.325-20.484 9.5l40.97.014Z"
            fill="#f58220" fill-rule="evenodd" data-name="Path 257" />
        <g data-name="Group 563">
            <g data-name="Group 562">
                <path
                    d="M254.249 202.563c0 6.978-5.656 12.634-12.634 12.634l-35.396-.013c3.76-.15 12.33-1.28 17.648-8.144l.05-.063a19.565 19.565 0 0 0 2.538-4.414c3.554-8.53 8.545-11.337 11.814-12.24.138-.039.271-.073.401-.105 1.772-.424 2.946-.288 2.946-.288 6.574 0 11.975 5.021 12.577 11.438.037.393.056.791.056 1.195Z"
                    fill="#f58220" fill-rule="evenodd" data-name="Path 258" />
            </g>
        </g>
        <path d="M237.924 197.751h-6.401l4.343-14.326-11.794 17.492h6.402l-4.344 14.327 11.794-17.493Z" fill="#fff"
            fill-rule="evenodd" data-name="XMLID_1940_" />
    </g>
</svg>