<svg xmlns="http://www.w3.org/2000/svg" width="93.092" height="53.784" viewBox="-15344.998 11341.173 93.092 53.784"><g data-name="Logo(White)"><path d="M-15251.984 11375.82c-.83-8.848-8.28-15.773-17.346-15.773 0 0-1.619-.187-4.062.398a23.742 23.742 0 0 0-3.95-9.216c3.617-.424 7.38.02 11.004 1.468 9.592 3.82 15.158 13.353 14.354 23.123Z" fill="#fbad41" fill-rule="evenodd" data-name="Path 255"/><path d="M-15273.392 11360.444c-.18.043-.363.09-.553.143-4.508 1.247-11.392 5.117-16.293 16.881a26.94 26.94 0 0 1-3.5 6.088l-.069.087c-.96-1.632-1.811-3.448-2.552-5.447-1.769-4.778-4.196-8.94-7.22-12.366-2.44-2.768-5.266-5.06-8.4-6.816a29.857 29.857 0 0 0-6.969-2.833c3.509-8.794 12.105-15.008 22.15-15.008 8.032 0 15.135 3.97 19.454 10.056a23.708 23.708 0 0 1 3.952 9.215Z" fill="#f58220" fill-rule="evenodd" data-name="Path 256"/><path d="M-15261.246 11394.892h-63.568c-11.148 0-20.184-9.036-20.184-20.183s9.036-20.183 20.184-20.183c0 0 18.891-1.205 30.518 20.183 1.505 2.768 3.118 5.1 4.797 7.063-8.481 11.044-22.23 12.86-28.25 13.1l56.503.02Z" fill="#f58220" fill-rule="evenodd" data-name="Path 257"/><g data-name="Group 563"><g data-name="Group 562"><path d="M-15251.906 11377.469c0 9.623-7.801 17.423-17.424 17.423l-48.814-.018c5.185-.206 17.005-1.766 24.338-11.23l.068-.087a26.982 26.982 0 0 0 3.5-6.088c4.902-11.764 11.785-15.635 16.294-16.88.19-.054.374-.101.553-.144 2.443-.586 4.062-.398 4.062-.398 9.066 0 16.515 6.925 17.346 15.773.05.543.077 1.092.077 1.649Z" fill="#f58220" fill-rule="evenodd" data-name="Path 258"/></g></g><path d="M-15274.42 11370.833h-8.828l5.99-19.757-16.265 24.123h8.828l-5.99 19.758 16.265-24.124Z" fill="#fff" fill-rule="evenodd" data-name="XMLID_1940_"/></g></svg>