<svg xmlns="http://www.w3.org/2000/svg" width="33" height="33" viewBox="0 0 33 33">
  <g id="Group_639" data-name="Group 639" transform="translate(-4994 1085)">
    <circle id="Ellipse_46" data-name="Ellipse 46" cx="16.5" cy="16.5" r="16.5" transform="translate(4994 -1085)" fill="#e8e8e8" opacity="0.8"/>
    <g id="cloud-refresh-symbol-svgrepo-com" transform="translate(5002.676 -1075)" opacity="0.35">
      <path id="Path_278" data-name="Path 278" d="M15.648,64.075a3.514,3.514,0,0,1-3.51,3.51h-.512a4.57,4.57,0,0,1-3.085,1.222H8.479a4.443,4.443,0,0,1-3.93-2.565l-.243.537a.34.34,0,0,1-.619-.28l.591-1.308a.34.34,0,0,1,.445-.172L5.9,65.53a.34.34,0,1,1-.271.623l-.462-.2a3.783,3.783,0,0,0,3.324,2.174,3.879,3.879,0,0,0,2-.541H7.451a3.339,3.339,0,0,1-1.173-.741h5.86a2.767,2.767,0,0,0,.66-5.455,4.986,4.986,0,0,0,.005-.758A3.513,3.513,0,0,1,15.648,64.075Zm-11.9,3.175a.676.676,0,0,1-.365-.413,2.767,2.767,0,0,1-.685-5.408l.324-.1L2.948,61a2.767,2.767,0,0,1,5.376-1.3l.082.3.313-.032c.093-.009.188-.014.28-.014A2.765,2.765,0,0,1,11.3,61.188l.126.19a3.548,3.548,0,0,0-.09-1.264l-2.394-.9A3.51,3.51,0,0,0,7.738,57.6a3.187,3.187,0,0,0-.41-.254,3.9,3.9,0,0,1,3.453,1.107,3.783,3.783,0,0,1,.813,3.888l-.185-.469a.34.34,0,1,0-.632.249l.469,1.192a.34.34,0,0,0,.316.215.336.336,0,0,0,.12-.022L13.024,63a.34.34,0,1,0-.24-.636l-.552.208a4.444,4.444,0,0,0-.965-4.592,4.579,4.579,0,0,0-5-1.031c-.01,0-.019.01-.029.015a3.225,3.225,0,0,0-.588-.056,3.513,3.513,0,0,0-3.509,3.509,3.452,3.452,0,0,0,.024.41,3.51,3.51,0,0,0,1.34,6.754h.837" transform="translate(0 -56.61)"/>
    </g>
  </g>
</svg>
