<svg xmlns="http://www.w3.org/2000/svg" width="19.955" height="19.955"  viewBox="0 0 19.955 18.905">
    <g data-name="Group 772">
        <path
            d="M9.977 0C4.477 0 0 4.476 0 9.978c0 5.501 4.476 9.977 9.977 9.977 5.502 0 9.978-4.476 9.978-9.977C19.955 4.476 15.48 0 9.977 0Zm0 18.347c-4.614 0-8.369-3.755-8.369-8.37 0-4.614 3.755-8.369 8.37-8.369 4.615 0 8.37 3.755 8.37 8.37 0 4.614-3.755 8.369-8.37 8.369Z"
            fill="#df3838" fill-rule="evenodd" data-name="Path 338" />
        <path d="M13.73 9.173H6.226a.804.804 0 0 0 0 1.609h7.504a.804.804 0 0 0 0-1.609Z" fill="#df3838"
            fill-rule="evenodd" data-name="Path 339" />
    </g>
</svg>