<svg xmlns="http://www.w3.org/2000/svg" width="19.5" height="19.5" viewBox="0 0 19.5 19.5">
  <g id="category-svgrepo-com" opacity="0.85">
    <g id="Group_362" data-name="Group 362" transform="translate(8.937 2.563)">
      <path id="Path_181" data-name="Path 181" d="M52.147,28.379l2.892,2.892h0a1.571,1.571,0,0,1,0,2.275h0L47.5,41.054V30.719l2.34-2.372A1.638,1.638,0,0,1,52.147,28.379Z" transform="translate(-47.5 -27.887)" fill="#fff"/>
    </g>
    <path id="Path_182" data-name="Path 182" d="M25.687,20H21.625A1.609,1.609,0,0,0,20,21.625V35.86a3.64,3.64,0,0,0,7.28,0V21.625A1.582,1.582,0,0,0,25.687,20ZM23.64,37.485a1.625,1.625,0,1,1,1.625-1.625A1.609,1.609,0,0,1,23.64,37.485Z" transform="translate(-20 -20)" fill="#fff"/>
    <g id="Group_363" data-name="Group 363" transform="translate(7.735 12.188)">
      <path id="Path_183" data-name="Path 183" d="M53.94,57.5H51.08l-1.95,1.95h4.485l-.033,3.412H45.75l-1.95,1.95H53.94a1.609,1.609,0,0,0,1.625-1.625V59.125A1.63,1.63,0,0,0,53.94,57.5Z" transform="translate(-43.8 -57.5)" fill="#fff"/>
    </g>
  </g>
</svg>
