<svg xmlns="http://www.w3.org/2000/svg" width="89.325" height="89.325" viewBox="8.315 8.315 89.325 89.325"><path d="M97.64 52.977c0 24.672-19.998 44.663-44.663 44.663-24.664 0-44.662-19.99-44.662-44.663 0-24.657 19.998-44.662 44.662-44.662 24.665 0 44.663 20.005 44.663 44.662ZM54.176 23.082c-9.815 0-16.074 4.135-20.99 11.482a2.164 2.164 0 0 0 .49 2.928l6.248 4.739a2.16 2.16 0 0 0 3.002-.383c3.217-4.08 5.423-6.446 10.32-6.446 3.678 0 8.229 2.368 8.229 5.935 0 2.697-2.226 4.082-5.859 6.119-4.236 2.375-9.842 5.33-9.842 12.725v.72c0 1.194.967 2.161 2.16 2.161H58.02a2.161 2.161 0 0 0 2.16-2.16v-.24c0-5.127 14.982-5.34 14.982-19.21 0-10.446-10.835-18.37-20.986-18.37Zm-1.199 44.663c-4.568 0-8.284 3.716-8.284 8.284 0 4.568 3.716 8.284 8.284 8.284 4.568 0 8.284-3.716 8.284-8.284 0-4.568-3.716-8.284-8.284-8.284Z" fill="#f4651e" fill-rule="evenodd" data-name="Icon awesome-question-circle"/></svg>