<svg xmlns="http://www.w3.org/2000/svg" width="40" height="40" viewBox="0 0 40 40">
  <g id="Group_366" data-name="Group 366" transform="translate(0 0.152)">
    <circle id="Ellipse_1" data-name="Ellipse 1" cx="20" cy="20" r="20" transform="translate(0 -0.152)" fill="#fff" opacity="0.2"/>
    <path id="faq-svgrepo-com" d="M10.264,0A10.264,10.264,0,1,0,20.527,10.264,10.264,10.264,0,0,0,10.264,0Zm0,15.4a1.283,1.283,0,1,1,1.283-1.283A1.283,1.283,0,0,1,10.264,15.4Zm.98-5.325a.6.6,0,0,0-.338.566V10.9a.641.641,0,0,1-1.283,0v-.269a1.871,1.871,0,0,1,1.131-1.752A1.283,1.283,0,1,0,8.981,7.7.641.641,0,0,1,7.7,7.7a2.567,2.567,0,1,1,3.546,2.372Z" transform="translate(9.828 9.817)" fill="#fff" opacity="0.8"/>
  </g>
</svg>
