<svg xmlns="http://www.w3.org/2000/svg" width="30" height="30" viewBox="0 0 30 30">
  <g id="Group_982" data-name="Group 982" transform="translate(-4221 1703)">
    <rect id="Rectangle_1822" data-name="Rectangle 1822" width="30" height="30" transform="translate(4221 -1703)" fill="#7a93c2" opacity="0.77"/>
    <path id="Icon_awesome-chevron-down" data-name="Icon awesome-chevron-down" d="M5.83,7.469.2,1.842A.7.7,0,0,1,.2.86L.86.2a.7.7,0,0,1,.981,0l4.48,4.459L10.8.2a.7.7,0,0,1,.981,0l.656.656a.7.7,0,0,1,0,.983L6.813,7.469A.7.7,0,0,1,5.83,7.469Z" transform="translate(4232.011 -1681.357) rotate(-90)" fill="#fff"/>
  </g>
</svg>
