<svg xmlns="http://www.w3.org/2000/svg" width="31.854" height="24.798" viewBox="-3 54.77 31.854 24.798"><g data-name="XMLID_1854_"><path d="M5.953 58.181a5.005 5.005 0 0 0-5.005 5.006 5 5 0 0 0 5.005 5.006 5 5 0 0 0 5.006-5.006 5.005 5.005 0 0 0-5.006-5.006Zm0 3.372c-.898 0-1.633.729-1.633 1.634a.748.748 0 1 1-1.496 0 3.126 3.126 0 0 1 3.123-3.123c.413 0 .748.335.748.748a.74.74 0 0 1-.742.741Z" fill="#3d8be5" fill-rule="evenodd" data-name="XMLID_1882_"/><path d="M19.9 54.77a5.005 5.005 0 0 0-5.005 5.006 5 5 0 0 0 5.006 5.005 5 5 0 0 0 5.005-5.005 5 5 0 0 0-5.005-5.006Zm0 3.372c-.898 0-1.633.728-1.633 1.634a.748.748 0 1 1-1.496 0 3.126 3.126 0 0 1 3.123-3.123c.414 0 .748.334.748.748a.736.736 0 0 1-.741.741Z" fill="#3d8be5" fill-rule="evenodd" data-name="XMLID_1874_"/><path d="M28.85 71.519V71.4c-.047-1.41-.31-2.382-1.752-3.287-1.91-1.2-4.042-2.237-4.042-2.237l-1.699 5.366-.99-1.994c1.738-2.428-.125-2.552-.453-2.552h-.026c-.335 0-2.198.124-.453 2.552l-.99 1.994-1.7-5.366s-2.132 1.036-4.041 2.237c-.44.275-.768.558-1.017.86.689.373 1.476.826 2.237 1.305.925.584 1.562 1.26 1.949 2.073.38.807.465 1.633.485 2.342.007.046.007.092.007.138v.085c.006.289.006.584 0 .886v.354h12.478v-3.884.105c.013-.302.013-.59.006-.86Zm-.014-.145c0-.026 0-.026 0 0Z" fill="#3d8be5" fill-rule="evenodd" data-name="XMLID_1879_"/><g data-name="XMLID_1878_"><g data-name="XMLID_1881_"><path d="M14.895 74.93v-.118c-.04-1.41-.308-2.381-1.751-3.287-1.91-1.2-4.042-2.237-4.042-2.237l-1.699 5.367-.99-1.995c1.738-2.427-.125-2.552-.453-2.552h-.026c-.335 0-2.198.125-.453 2.552l-.99 1.995-1.7-5.367S.66 70.325-1.25 71.525c-1.437.906-1.7 1.877-1.745 3.287v.118c-.007.27-.007.558 0 .86v-.105 3.883h17.89v-3.883.105c.007-.302.007-.59 0-.86Z" fill="#3d8be5" fill-rule="evenodd" data-name="Path 373"/></g><g data-name="XMLID_1880_"><path d="M-2.982 74.786c0-.026 0-.026 0 0 0 .006 0 0 0 0Z" fill="#3d8be5" fill-rule="evenodd" data-name="Path 374"/></g><g data-name="XMLID_1851_"><path d="M14.882 74.792c0-.032 0-.032 0 0 0-.006 0 0 0 0Z" fill="#3d8be5" fill-rule="evenodd" data-name="Path 375"/></g></g></g></svg>