<svg xmlns="http://www.w3.org/2000/svg" width="40" height="40" viewBox="0 0 40 40">
  <g id="Group_370" data-name="Group 370" transform="translate(0 -0.076)">
    <circle id="Ellipse_1" data-name="Ellipse 1" cx="20" cy="20" r="20" transform="translate(0 0.076)" fill="#fff" opacity="0.2"/>
    <g id="layers-svgrepo-com" transform="translate(9.037 9.082)" opacity="0.8">
      <g id="Group_365" data-name="Group 365" transform="translate(0 0)">
        <path id="Path_195" data-name="Path 195" d="M10.647,12.887a.373.373,0,0,1-.207-.041L-.068,6.805a.439.439,0,0,1,0-.745l5.378-3.1a.531.531,0,0,1,.579.207.419.419,0,0,1-.165.579L.966,6.474l9.681,5.544,9.722-5.544L10.647.931,8.165,2.255a.426.426,0,1,1-.414-.745L10.44.062a.376.376,0,0,1,.414,0l10.549,6a.439.439,0,0,1,0,.745l-10.549,6.04A.309.309,0,0,1,10.647,12.887Z" transform="translate(0.275 0)" fill="#fff" stroke="#fff" stroke-width="1"/>
        <path id="Path_196" data-name="Path 196" d="M10.647,202.372a.372.372,0,0,1-.207-.041L-.068,196.29a.439.439,0,0,1,0-.745l4.013-2.275a.376.376,0,0,1,.414,0l6.33,3.6,6.33-3.6a.376.376,0,0,1,.414,0l4.013,2.275a.439.439,0,0,1,0,.745l-10.591,6.04A.31.31,0,0,1,10.647,202.372ZM.966,195.959l9.681,5.544,9.722-5.544-3.144-1.779-6.371,3.6a.376.376,0,0,1-.414,0l-6.33-3.641Z" transform="translate(0.275 -184.934)" fill="#fff" stroke="#fff" stroke-width="1"/>
        <path id="Path_197" data-name="Path 197" d="M10.647,308.636a.373.373,0,0,1-.207-.041l-10.508-6.04a.438.438,0,0,1,0-.745l4.013-2.275a.376.376,0,0,1,.414,0l6.33,3.6,6.33-3.6a.376.376,0,0,1,.414,0l4.013,2.275a.438.438,0,0,1,0,.745l-10.591,6.04A.31.31,0,0,1,10.647,308.636ZM.966,302.223l9.681,5.544,9.722-5.544-3.144-1.779-6.371,3.6a.376.376,0,0,1-.414,0L4.11,300.4Z" transform="translate(0.275 -286.647)" fill="#fff" stroke="#fff" stroke-width="1"/>
        <path id="Path_198" data-name="Path 198" d="M155.118,50.165a.414.414,0,1,1-.414-.414.415.415,0,0,1,.414.414" transform="translate(-147.672 -47.62)" fill="#fff" stroke="#fff" stroke-width="1"/>
      </g>
    </g>
  </g>
</svg>
