<svg xmlns="http://www.w3.org/2000/svg" width="33" height="33" viewBox="0 0 33 33">
  <g id="Group_646" data-name="Group 646" transform="translate(-4994 1085)">
    <circle id="Ellipse_46" data-name="Ellipse 46" cx="16.5" cy="16.5" r="16.5" transform="translate(4994 -1085)" fill="#e8e8e8" opacity="0.8"/>
    <path id="Icon_awesome-tasks" data-name="Icon awesome-tasks" d="M4,2.349a.343.343,0,0,0-.487,0L1.687,4.161l-.65-.633a.343.343,0,0,0-.487,0L.1,3.978a.343.343,0,0,0,0,.487L1.463,5.821a.366.366,0,0,0,.5,0l.446-.447L4.48,3.308a.346.346,0,0,0,0-.487ZM4,6.906a.343.343,0,0,0-.487,0L1.687,8.73,1.037,8.1a.343.343,0,0,0-.487,0L.1,8.546a.343.343,0,0,0,0,.487l1.359,1.36a.366.366,0,0,0,.5,0l.449-.449L4.48,7.876a.343.343,0,0,0,0-.484ZM1.832,11.867a1.374,1.374,0,1,0,0,2.748,1.374,1.374,0,1,0,0-2.748Zm12.366.458H5.954a.458.458,0,0,0-.458.458V13.7a.458.458,0,0,0,.458.458H14.2a.458.458,0,0,0,.458-.458v-.916A.458.458,0,0,0,14.2,12.325Zm0-9.16H5.954a.458.458,0,0,0-.458.458v.916A.458.458,0,0,0,5.954,5H14.2a.458.458,0,0,0,.458-.458V3.623A.458.458,0,0,0,14.2,3.165Zm0,4.58H5.954A.458.458,0,0,0,5.5,8.2v.916a.458.458,0,0,0,.458.458H14.2a.458.458,0,0,0,.458-.458V8.2A.458.458,0,0,0,14.2,7.745Z" transform="translate(5003.172 -1076.931)" opacity="0.29"/>
  </g>
</svg>
