<svg xmlns="http://www.w3.org/2000/svg" width="18.21" height="32.38" viewBox="496.396 407.31 18.21 32.38">
    <path
        d="m509.624 422.07-6.83-1.998a1.865 1.865 0 0 1 .525-3.655h4.193c.771 0 1.53.234 2.162.664a.986.986 0 0 0 1.234-.127l2.2-2.15c.45-.436.386-1.163-.113-1.55a8.943 8.943 0 0 0-5.47-1.896v-3.036c0-.557-.456-1.012-1.013-1.012h-2.023c-.557 0-1.012.455-1.012 1.012v3.036h-.158c-4.029 0-7.267 3.459-6.894 7.563.266 2.916 2.492 5.287 5.3 6.11l6.482 1.897a1.865 1.865 0 0 1-.525 3.655h-4.193a3.86 3.86 0 0 1-2.163-.664.986.986 0 0 0-1.233.127l-2.2 2.15c-.45.436-.386 1.163.113 1.55a8.943 8.943 0 0 0 5.47 1.896v3.036c0 .557.456 1.012 1.013 1.012h2.023c.557 0 1.012-.455 1.012-1.012v-3.048c2.947-.057 5.71-1.809 6.685-4.598 1.36-3.896-.924-7.892-4.585-8.961Z"
        fill="currentColor" fill-rule="evenodd" data-name="Icon awesome-dollar-sign" />
</svg>