<svg id="upgrade-svgrepo-com" xmlns="http://www.w3.org/2000/svg" width="17.559" height="17.559" viewBox="0 0 17.559 17.559">
  <path id="Path_237" data-name="Path 237" d="M15.789,24H10.132A1.132,1.132,0,0,0,9,25.132v1.132a1.132,1.132,0,0,0,1.132,1.132h5.658a1.132,1.132,0,0,0,1.132-1.132V25.132A1.132,1.132,0,0,0,15.789,24Zm0,2.263H10.132V25.132h5.658Z" transform="translate(-4.5 -10.944)" fill="#fff"/>
  <path id="Path_238" data-name="Path 238" d="M17.544,8.955,10.755,2.166a.565.565,0,0,0-.8,0L3.166,8.955a.566.566,0,0,0,.4.966H6.395v2.263a1.133,1.133,0,0,0,1.132,1.132h5.658a1.133,1.133,0,0,0,1.132-1.132V9.921h2.829a.566.566,0,0,0,.4-.966Zm-4.36-.166v3.395H7.526V8.789H4.932l5.423-5.423,5.423,5.423Z" transform="translate(-1.895 -1.391)" fill="#fff"/>
  <rect id="_Transparent_Rectangle_" data-name="&lt;Transparent Rectangle&gt;" width="17.559" height="17.559" transform="translate(0 0)" fill="none"/>
</svg>
