<svg xmlns="http://www.w3.org/2000/svg" width="34.679" height="30.344" viewBox="0 0 34.679 30.344">
  <path id="Icon_awesome-bars" data-name="Icon awesome-bars" d="M1.239,9.792h32.2a1.238,1.238,0,0,0,1.239-1.239v-3.1A1.238,1.238,0,0,0,33.44,4.219H1.239A1.238,1.238,0,0,0,0,5.457v3.1A1.238,1.238,0,0,0,1.239,9.792Zm0,12.385h32.2a1.238,1.238,0,0,0,1.239-1.239v-3.1A1.238,1.238,0,0,0,33.44,16.6H1.239A1.238,1.238,0,0,0,0,17.842v3.1A1.238,1.238,0,0,0,1.239,22.177Zm0,12.385h32.2a1.238,1.238,0,0,0,1.239-1.239v-3.1a1.238,1.238,0,0,0-1.239-1.239H1.239A1.238,1.238,0,0,0,0,30.228v3.1A1.238,1.238,0,0,0,1.239,34.563Z" transform="translate(0 -4.219)" fill="#fff" opacity="0.8"/>
</svg>
